<?xml version="1.0" encoding="utf-8"?>
<!-- Generator: Adobe Illustrator 22.1.0, SVG Export Plug-In . SVG Version: 6.00 Build 0)  -->
<svg version="1.1" id="Capa_1" xmlns="http://www.w3.org/2000/svg" xmlns:xlink="http://www.w3.org/1999/xlink" x="0px" y="0px"
	 viewBox="0 0 214.1 214.1" style="enable-background:new 0 0 214.1 214.1;" xml:space="preserve">
<style type="text/css">
	.st0{fill:#790304;}
</style>
<g>
	<path class="st0" d="M188.8,63.7c0-29.6-16.7-33.7-16.7-43.3l-1,13.7c0,2.2-1.3,4-1.3,4.1c-17.4-28.4-42-29.8-42-29.8
		c11.5,4.5,13,15.1,13,15.1c-13.7-13-17.1-12.3-26.1-12c-45.1,1.4-57.2-7.8-57.5-8.1c15.6,15.8-0.7,9.7-0.7,9.7
		c10.7,8.7,9.2,10.5,1.3,7l6.1,6.3c0,0-18.8,3.2-37.3,17.7C2.8,62.6,0,75,0,75v139.1h29c0-58.6,24.1-55.5,24.1-55.5
		c18.6,13.5,52.1-6.3,52.1-6.3c11.5-3.1,7.9,26.1,7.9,26.1c-2.4,6.3-7,9.7-7,9.7l-11.8-4.3c-9.2,1.1-16.2,21.8-16.2,21.8
		c10,3.2,30.5-5.7,30.5-5.7c12-6.3,16.9-8.4,16.9-8.4l1.4-29.7c1.5-17.6,0.7-20.5-3.9-22.2c-6.6-2.5-30.3-10.1-30.3-10.1
		c-1.6-6.7-0.8-19.3,10-36.5C114.1,74.4,134,74.9,134,74.9c-5,16.3,27.2,42.5,27.2,42.5l3.4,28h24.4
		C188.9,124.1,189,80.7,188.8,63.7z M177.5,82.4c-1.5,1.5-4.2,1.2-6-0.7c-1.1-1.1-1.6-2.4-1.6-3.7c0-0.9-4.2-6.2-3.6-6.8
		c0.6-0.6,5.9,3.6,6.8,3.6c1.2,0,2.6,0.5,3.7,1.6C178.7,78.3,179,80.9,177.5,82.4z"/>
</g>
</svg>
